<svg version="1" xmlns="http://www.w3.org/2000/svg" width="933.333" height="933.333" viewBox="0 0 700.000000 700.000000"><path d="M156.5.7c-12.6 3-23.8 16-24.8 28.8-.4 6 1.6 14.4 4.7 19.4 8.1 12.7 23.8 18.5 37.5 13.6l4.2-1.5 35 35.2c19.3 19.3 35.8 36.5 36.7 38.2 1.3 2.5 1.7 6.7 2 21.8.2 10.4 0 18.8-.5 18.9-.4 0-7.3.2-15.3.3-8 .2-16.3.8-18.6 1.4-9.6 2.7-11.8 12-4.5 18.6 1.8 1.6 3 1.8 8.8 1.2 8.5-.9 250.4-.9 255.2 0 4.4.8 12.8 4.9 15.9 7.8 3.9 3.6 8.2 10.4 9.7 15.3 1.3 4.1 1.5 24.1 1.4 135.6 0 102.4.3 131.2 1.2 132.3 3.8 4.6 10.5 5.1 14.7 1.2 3.4-3.3 4.5-8.9 4.8-24.8.1-8 .3-14.8.3-15.3.1-.4 20.5-.7 45.4-.7h45.3l1.8 4.1c2.5 5.7 8.7 11.6 15.5 14.7 4.6 2.2 7 2.6 13.2 2.6 12.9-.2 23.3-6.8 28.8-18.4 3.4-7.2 3.6-19.1.4-26-9.2-20.1-34.7-25.6-50.7-10.9-2.9 2.6-6 6.6-7 8.7-1 2.2-2.6 4.2-3.5 4.4-1.3.3-87.5.2-89.1-.1-.4-.1-.5-19.1-.1-22.3.1-.5 10.4-.8 22.9-.8 12.6.1 24-.4 25.4-.9 6.3-2.4 7.9-11.2 2.9-16.2-1.6-1.6-3.8-3-4.8-3-1-.1-11.7-.2-23.8-.4-12.1-.1-22.2-.3-22.5-.4-.3 0-.5-5.1-.5-11.1 0-10.3.1-11.1 2-11.5 1.1-.2 38.7-.3 83.6-.3 77.6.1 81.7 0 84.7-1.7 6.5-3.9 6.6-13.1 0-16.9-3-1.8-6.6-1.9-86.2-2.1-45.7-.1-83.3-.2-83.6-.3-.4-.2-.5-19.9-.1-22.2.1-.3 10.1-.5 22.4-.5 12.2.1 23.4-.3 24.9-.8 5.7-1.8 8.6-8.3 6-13.6-2.7-5.7-4.7-6.1-30.3-6.4l-23.2-.2V285c.1-5.8.2-11 .2-11.5.1-.6 7-1 18.4-1.1 19.6 0 24.6-.8 33.1-5.3 3.5-1.8 15.7-13.3 40.9-38.4 33.2-33.1 36.1-35.8 38.6-35.2 7.2 2 9.5 2.3 14.7 1.9 23.5-1.5 36.9-28.8 24.1-49.1-4.4-6.9-12.3-12.3-20.2-13.9-23.5-4.7-43.3 16.1-37.5 39.2l1.7 6.7-34.9 34.8c-19.2 19.2-36.4 35.7-38.1 36.7-2.6 1.4-6.5 1.8-21.9 2-10.4.2-18.8 0-18.9-.5 0-.4-.2-7.6-.3-15.8-.3-16.1-1.3-20.9-6.2-30.9-3-6.2-13-17.1-19.1-20.8-10.7-6.7-17.3-8.2-37-8.2l-14.3-.1V84.4l3.9-1.7c2.2-1 5.8-3.6 8.1-5.8 12.5-12.1 12.7-33 .4-45.3-6.3-6.3-13.4-9.1-22.9-9.1-6.7.1-8.9.5-13.7 2.9-15.5 7.6-22.2 25.8-15.3 41.9 2.2 5.3 9 12.4 14.4 15.2l4.5 2.2.1 45.2c0 35.4-.3 45.1-1.2 45.2-1.7.1-18.9.1-20.8 0-1.2-.1-1.4-3.6-1.5-23.6 0-25.8-.2-26.9-6-29.7-5.8-2.8-12.1.3-13.8 6.8-.4 1.6-.7 12.7-.7 24.6 0 12-.3 21.8-.7 21.9-.4 0-4.6.1-9.3.1-4.7 0-9.6-.1-10.8-.1l-2.4-.1V91.7c0-75.1-.1-83.5-1.6-86.4-3.4-6.5-13.3-6.6-17.1-.1-1.8 3-1.9 6.7-1.8 84.7 0 44.9-.1 82.5-.3 83.6-.4 1.8-1.1 2-10.2 1.9-5.4-.1-10.5-.2-11.3-.3-1.3-.1-1.5-3.4-1.5-23.6 0-22-.2-23.6-2.1-26.2-4.4-5.8-12.4-6-16.4-.4-1.9 2.8-2 4.3-2.1 26.5 0 17.6-.3 23.6-1.2 23.7-6.6.5-21 .2-21.4-.5-.3-.5-.7-9-.8-19-.2-19.2-1.1-23.9-5.6-32.5-1.5-2.8-15.8-17.9-38.1-40.3C209.1 63.1 193 46.6 193 46.2c0-.4.7-2.8 1.4-5.3 5.9-19.4-8.9-39.7-29.3-40.4-3.6-.1-7.5 0-8.6.2zm15.1 23.7c9.7 9.7-2.7 24.6-14.2 17.1-6-3.9-6.8-12-1.6-17.2 2.7-2.8 4-3.3 7.8-3.3 3.9 0 5.1.5 8 3.4zM446.3 47c7.3 8.1-.9 20.9-11.6 17.9-5.1-1.4-8-5.1-8.1-10.3-.2-11.2 12.1-15.9 19.7-7.6zm227.4 106.9c3.2 1.7 5.3 5.7 5.3 10.2 0 5.6-5 10.9-10.4 10.9-4.6 0-8.8-2.1-10.4-5.2-5.7-10.6 4.9-21.6 15.5-15.9zm-22.8 273.6c7.2 3.7 8.5 12.3 2.7 18.1-2.6 2.6-4.2 3.4-7.1 3.4-8.7 0-14.3-7.9-11-15.8 2.5-5.8 9.9-8.6 15.4-5.7zM183 209.4c-3 1.4-5.8 5.3-6.6 9.1-.3 1.6-.7 9.7-.8 18l-.3 15-45.6.3-45.5.2-1.1-3.3c-1.7-4.9-9.3-12.5-15.7-15.4-6.6-3-14.8-3.7-21.1-1.8-2.4.7-4.6 1.4-4.8 1.4-3.5.5-11.4 7.4-15 13.1-4.9 7.8-5.6 20.4-1.6 29.5 5.1 11.6 18.9 19.8 31.6 18.8 10.4-.8 21.3-8.1 25.9-17.1l2.3-4.6h45.2c29.4-.1 45.1.2 45.2.9.1 1.4.1 19.8 0 21.2-.1.8-6.2 1.2-23.1 1.2-24.9.1-27.3.5-29.9 5.4-2.8 5.3-.6 11.7 4.9 14 1.9.8 10.2 1.2 25.4 1.2 12.4 0 22.6.2 22.7.5.3 1.7.4 19.8.1 21.1-.3 1.4-8.4 1.6-83.8 1.6-64.4 0-84 .3-85.7 1.2-7 3.7-7.2 13.6-.5 17.6 3 1.7 7.1 1.8 85.7 1.8 45.4 0 83.1.3 83.6.8.8.6 1.2 13 .6 20.9-.1 1.3-3.3 1.5-23.6 1.6-22.1 0-23.6.1-26.2 2-5.4 4-5.9 10.7-1.1 15.9 1.7 1.9 3.5 2 26.5 2.5l24.6.5.1 11.3c.1 6.1-.1 11.2-.4 11.3-.3 0-9 .2-19.5.3-21.1.3-26 1.4-35 7.6-2.6 1.8-20.2 18.7-39.2 37.7l-34.4 34.4-5.7-1.4c-16-4.1-31.3 2.8-38.1 17.3-3.5 7.4-3.6 19-.2 26.5 6.4 14.4 23.9 22.1 39.1 17.3 16.5-5.2 26.3-24.5 20.6-40.6l-1.5-4.2 35-35c19.3-19.3 36.5-35.8 38.2-36.8 2.7-1.4 6-1.7 22.1-1.7h18.8l.3 15c.1 8.2.7 17.2 1.4 19.8 4.4 18.4 21.5 35.4 39.8 39.8 2.6.6 11.6 1.3 19.8 1.4l15 .2.2 45.4.3 45.4-4.2 1.9c-14.7 6.8-21.7 27-14.5 41.8 3.5 7.1 8.8 12.4 15.7 15.7 4.5 2.1 7 2.6 13.5 2.6 6.9 0 8.8-.4 13.8-2.9 20.3-10.3 24.1-36.9 7.5-52.2-2.3-2.2-5.8-4.6-7.5-5.3-1.8-.7-3.3-1.6-3.4-2 0-.3-.2-20.7-.2-45.4-.2-39.1 0-44.7 1.3-44.8.8-.1 6-.1 11.5-.2l10-.1.2 22c.1 12 .5 23.3.8 25.1 1.1 6.3 9.5 9.5 15.2 5.8 4.4-2.9 4.8-5.7 4.8-29.9V525l2.5-.1c1.4-.1 6.6-.2 11.5-.2l9-.1.1 83.1c.1 61.5.4 83.9 1.3 86 3.1 7.5 13.4 8.1 17.6 1.1 1.7-3 1.8-7.2 1.8-86.5 0-75.4.2-83.3 1.6-83.4 4.7-.3 18.8-.4 20.1-.1 1.4.3 1.6 3.3 1.5 22.4 0 12.2.4 23.5 1 25.1 2 5.9 8.7 8.6 14.2 5.6 4.9-2.6 5.3-5 5.3-29.9 0-12.6.3-23 .8-23.1 3.6-.4 21.5-.3 22 .1.4.3.7 8.6.7 18.5.1 12 .6 19.7 1.5 23 2.9 10.7 6.1 14.6 42.7 51.2 19.4 19.4 35.3 35.7 35.3 36.1 0 .4-.7 2.8-1.4 5.4-2 6.6-1.4 15.5 1.6 22 8.8 18.9 33.3 24.5 49.4 11.2 5.2-4.2 10.1-12.2 10.9-17.9.4-2.2.8-4.9.9-6 .6-3.8-2.4-13.6-5.5-18.3-7.8-11.8-23.7-17.4-36.7-12.8l-4.2 1.5-34-34c-18.7-18.7-35.2-35.8-36.8-38.1l-2.7-4.1v-37.9l15-.3c8.3-.1 16.8-.7 19.1-1.3 8.3-2.4 11.5-10.2 6.5-16.2l-2.6-3.1-133-.2-133-.2-5.2-2.7c-2.9-1.6-6.7-4.1-8.6-5.8-3.9-3.4-9.3-12.9-10.1-18-.8-4.9-.8-248 0-255.1.5-4.6.3-6.4-1-8.3-2.9-4.5-8.5-6.4-12.6-4.2zM60 252.7c4.2 2.4 5.7 6 5.1 12.5-.2 3.2-5 7.6-9 8.3-11.2 1.9-17.7-11.1-9.7-19.1 3.9-3.9 8.9-4.5 13.6-1.7zM37.4 526.2c5.6 2.5 7.9 10.2 4.6 15.6-2.8 4.6-8.2 6.8-13.2 5.3-8.4-2.5-10.7-12.4-4.4-18.7 3.7-3.7 8.2-4.5 13-2.2zm231.3 110.4c7.3 4.6 6.1 16.5-1.9 19.8-7 3-15.8-2.7-15.8-10.2 0-9.4 9.6-14.6 17.7-9.6zm271.6 20.8c6.1 2.5 8.7 8.1 6.7 14.2-2.7 8-12.4 10.2-18.6 4-6.6-6.6-3.8-15.8 5.6-18.9 2.4-.8 2.9-.8 6.3.7z"/><path d="M313.5 230.7c-5.5 1-11.4 2.8-14.6 4.4-6.2 3.1-13.3 10.4-16.8 17.3-2.9 5.7-3.4 7.5-3.5 15.1l-.2 8.7-5.5 2.2c-14.4 5.8-25.6 17.7-30.1 32.1-1.5 4.9-1.8 17-.4 22.2 1.5 5.8 4.3 11.9 6.8 15.2 2.4 3.1 2.3 4.4-.7 9-3.7 5.9-6.5 15.5-7 23.5-.9 15.1 4.8 28.5 17 40.1 6.7 6.5 7.4 7.5 7.8 11.9.8 7.2 5.9 16.9 12 23 18.1 18.1 48.9 19 67.8 1.9l3.9-3.5 3.9 3.5c4.9 4.5 11.2 8 18.1 10.3 6.5 2.1 21.1 2.4 27.9.5 17-4.8 30.1-18 33.3-33.6.9-4.7 1.6-5.7 5.8-8.7 12.9-9 21-25.8 19.6-40.5-.9-9.7-3.5-16.3-9.5-24.3-2.3-3-4.1-5.7-4.1-6.1 0-.3 1-1.4 2.1-2.5 8.3-7.4 13.5-26 10.8-38.5-3.3-15.6-15-29.1-30.8-35.5l-5.5-2.3-.1-8.3c-.1-6.9-.6-9.3-3-14.2-4.8-10.2-12.4-17-23.2-20.7-14.3-4.9-32.3-1.7-42.1 7.5-2.1 1.9-3.5 2.7-4 2-1.7-2.5-11.5-8.4-16.5-9.9-5.4-1.6-15.5-2.5-19.2-1.8zm14 21.6c6.4 2.5 11.1 7.8 12 13.7.9 5.8 2.6 9 5.6 10.5 6.6 3.5 13.2.3 14.6-7 1.1-6.1 2.6-9.5 5-12 10.2-10.2 28.7-8.2 34.9 3.7 2.1 4 1.7 14.7-.5 13.3-1.1-.6-14.9 3.1-16.9 4.6-5.2 4-6.5 8.5-3.8 13.7 2.7 5.3 6.2 6 17.1 3.3 7-1.7 11.8-1.8 18-.4 14.7 3.4 24.6 14.2 24.6 26.9 0 8.9-4.2 15.9-13.2 22.1-5.7 3.9-6.9 5.5-7.5 9.1-.7 4.6 1.1 7.8 7.3 12.3 3.2 2.4 6.6 5.2 7.6 6.4 7.7 8.7 7.5 22.9-.4 32.5l-2.1 2.5-3-3.8c-5-6.2-8.1-9.2-12.3-11.7-10.1-6.3-16.2-7.6-20.7-4.6-3.2 2.1-5.2 7.3-4.2 11 .6 2.7 5.7 7.6 7.8 7.6.7 0 3.3 1.3 5.8 2.9 12.4 7.9 13.6 24.1 2.6 33.6-13.1 11.1-36.3 7.3-43.4-7.2-1.7-3.5-1.9-6.9-2-40.3-.1-40 .1-41.8 5.7-47.8 4.1-4.4 9.9-7.2 17.3-8.3 7.6-1.2 10.4-2.6 12.2-6.1 1.8-3.4 1.8-6.2-.1-9.7-3.3-6.4-14.6-6.7-29.2-.8l-6.2 2.5.1-6.8c.1-3.8-.4-8.2-1.1-9.8-1.2-2.8-6.2-6.2-9.1-6.2-3 0-7.9 3.4-9.1 6.2-.9 2.2-1.2 10.8-1.2 32 0 15.9-.2 28.7-.6 28.5-11.3-6-18.1-6.4-21.6-1.1-4.4 6.7-2.1 13.1 5.8 16.3 6 2.5 11.7 7.3 14.3 12.2 1.5 2.8 1.8 6.1 2 18.3 0 8.4-.4 16.5-1 18.5s-3.2 5.7-5.7 8.3c-10 10-27.7 10.6-38.6 1.3-6.2-5.3-8-9.9-7.4-19.6 0-1.5 2-5.5 4.3-8.9 2.4-3.7 4.1-7.4 4.1-9.1 0-6.2-4.1-9.9-10.8-9.9-3.3 0-8.8 4.1-11.3 8.6-.9 1.6-1.2 1.6-2.7.4-2.2-1.8-6.4-9-7.6-13.2-2.7-9.3-.1-20.2 7-28 5-5.6 10.3-8.9 18.6-11.8 7.8-2.7 11.5-8.1 9.4-13.7-3-7.8-9.7-8.7-23-2.9l-7.8 3.4-1.6-2.4c-6.1-9.4-4.4-22 4.1-30.8 5.5-5.7 13.3-9 23.1-10 5.9-.6 8.6-2 10.3-5.1 2.2-4.2 2-6.9-1-12.2-5.9-10.3-2.7-20.1 8-24.7 4.1-1.8 13.2-1.9 17.5-.3z"/></svg>